<?xml version="1.0" standalone="no"?>
<!DOCTYPE svg PUBLIC "-//W3C//DTD SVG 20010904//EN"
 "http://www.w3.org/TR/2001/REC-SVG-20010904/DTD/svg10.dtd">
<svg version="1.0" xmlns="http://www.w3.org/2000/svg"
 width="200.000000pt" height="200.000000pt" viewBox="0 0 200.000000 200.000000"
 preserveAspectRatio="xMidYMid meet">

<g transform="translate(0.000000,200.000000) scale(0.100000,-0.100000)"
fill="#000000" stroke="none">
<path d="M0 1000 l0 -1000 1000 0 1000 0 0 1000 0 1000 -1000 0 -1000 0 0
-1000z m1403 532 l57 -58 -302 -322 -303 -322 -160 160 -160 160 63 62 62 63
96 -95 95 -95 114 120 c63 66 170 179 237 252 68 72 128 132 133 132 6 1 36
-25 68 -57z m-935 -819 l-3 -38 -52 -3 -53 -3 0 -135 0 -134 -45 0 -45 0 0
135 0 135 -50 0 -50 0 0 40 0 40 151 0 150 0 -3 -37z m299 -128 c29 -88 53
-166 53 -173 0 -9 -13 -12 -47 -10 -44 3 -47 5 -55 36 -8 32 -9 32 -68 32 -59
0 -60 0 -68 -32 -8 -31 -11 -33 -59 -36 l-51 -3 55 168 c30 92 57 172 60 176
3 4 32 7 66 5 l60 -3 54 -160z m583 143 c68 -35 85 -66 85 -153 0 -59 -4 -79
-21 -102 -38 -51 -79 -67 -181 -71 l-93 -4 0 176 0 176 83 0 c66 0 92 -5 127
-22z m424 -146 c31 -92 56 -170 56 -175 0 -4 -22 -7 -49 -7 -46 0 -49 2 -57
33 -10 31 -11 32 -69 32 -58 0 -59 -1 -69 -32 -8 -31 -11 -33 -57 -33 -27 0
-49 3 -49 7 0 5 25 83 56 175 l56 168 63 0 63 0 56 -168z m-716 -42 l3 -30
-80 0 -81 0 0 35 0 34 78 -4 77 -4 3 -31z"/>
<path d="M632 605 c-17 -63 -16 -65 18 -65 17 0 30 4 30 10 0 19 -24 100 -30
100 -3 0 -11 -20 -18 -45z"/>
<path d="M1230 575 l0 -95 34 0 c19 0 44 9 57 19 20 16 24 28 24 76 0 48 -4
60 -24 76 -13 10 -38 19 -57 19 l-34 0 0 -95z"/>
<path d="M1640 609 c-6 -22 -14 -47 -17 -55 -4 -11 4 -14 32 -14 28 0 36 3 32
14 -3 8 -11 33 -17 55 -6 23 -13 41 -15 41 -2 0 -9 -18 -15 -41z"/>
</g>
</svg>
